<mxfile host="app.diagrams.net" modified="2022-07-15T05:16:28.219Z" agent="5.0 (Windows NT 10.0; Win64; x64) AppleWebKit/537.36 (KHTML, like Gecko) Chrome/103.0.5060.114 Safari/537.36 Edg/103.0.1264.49" etag="KwFz_rFVM1pmR5uDXqfa" version="20.1.1" type="github">
  <diagram id="VcK8pSijWi17n7V9u4iY" name="Page-1">
    <mxGraphModel dx="2062" dy="1114" grid="1" gridSize="10" guides="1" tooltips="1" connect="1" arrows="1" fold="1" page="1" pageScale="1" pageWidth="850" pageHeight="1100" math="0" shadow="0">
      <root>
        <mxCell id="0" />
        <mxCell id="1" parent="0" />
        <mxCell id="v7Q8paS15kk1C6CEqGlS-79" value="Test Method" style="shape=table;startSize=30;container=1;collapsible=1;childLayout=tableLayout;fixedRows=1;rowLines=0;fontStyle=1;align=center;resizeLast=1;fillColor=#E6E6E6;" parent="1" vertex="1">
          <mxGeometry x="960" y="880" width="180" height="180" as="geometry" />
        </mxCell>
        <mxCell id="v7Q8paS15kk1C6CEqGlS-80" value="" style="shape=tableRow;horizontal=0;startSize=0;swimlaneHead=0;swimlaneBody=0;fillColor=none;collapsible=0;dropTarget=0;points=[[0,0.5],[1,0.5]];portConstraint=eastwest;top=0;left=0;right=0;bottom=1;" parent="v7Q8paS15kk1C6CEqGlS-79" vertex="1">
          <mxGeometry y="30" width="180" height="30" as="geometry" />
        </mxCell>
        <mxCell id="v7Q8paS15kk1C6CEqGlS-81" value="PK" style="shape=partialRectangle;connectable=0;fillColor=default;top=0;left=0;bottom=1;right=0;fontStyle=1;overflow=hidden;" parent="v7Q8paS15kk1C6CEqGlS-80" vertex="1">
          <mxGeometry width="35" height="30" as="geometry">
            <mxRectangle width="35" height="30" as="alternateBounds" />
          </mxGeometry>
        </mxCell>
        <mxCell id="v7Q8paS15kk1C6CEqGlS-82" value="Id" style="shape=partialRectangle;connectable=0;fillColor=default;top=0;left=1;bottom=1;right=0;align=left;spacingLeft=6;fontStyle=5;overflow=hidden;" parent="v7Q8paS15kk1C6CEqGlS-80" vertex="1">
          <mxGeometry x="35" width="145" height="30" as="geometry">
            <mxRectangle width="145" height="30" as="alternateBounds" />
          </mxGeometry>
        </mxCell>
        <mxCell id="v7Q8paS15kk1C6CEqGlS-86" value="" style="shape=tableRow;horizontal=0;startSize=0;swimlaneHead=0;swimlaneBody=0;fillColor=none;collapsible=0;dropTarget=0;points=[[0,0.5],[1,0.5]];portConstraint=eastwest;top=0;left=0;right=0;bottom=0;" parent="v7Q8paS15kk1C6CEqGlS-79" vertex="1">
          <mxGeometry y="60" width="180" height="30" as="geometry" />
        </mxCell>
        <mxCell id="v7Q8paS15kk1C6CEqGlS-87" value="" style="shape=partialRectangle;connectable=0;fillColor=default;top=0;left=0;bottom=0;right=0;editable=1;overflow=hidden;" parent="v7Q8paS15kk1C6CEqGlS-86" vertex="1">
          <mxGeometry width="35" height="30" as="geometry">
            <mxRectangle width="35" height="30" as="alternateBounds" />
          </mxGeometry>
        </mxCell>
        <mxCell id="v7Q8paS15kk1C6CEqGlS-88" value="Parameters" style="shape=partialRectangle;connectable=0;fillColor=default;top=0;left=1;bottom=1;right=0;align=left;spacingLeft=6;overflow=hidden;" parent="v7Q8paS15kk1C6CEqGlS-86" vertex="1">
          <mxGeometry x="35" width="145" height="30" as="geometry">
            <mxRectangle width="145" height="30" as="alternateBounds" />
          </mxGeometry>
        </mxCell>
        <mxCell id="v7Q8paS15kk1C6CEqGlS-83" value="" style="shape=tableRow;horizontal=0;startSize=0;swimlaneHead=0;swimlaneBody=0;fillColor=none;collapsible=0;dropTarget=0;points=[[0,0.5],[1,0.5]];portConstraint=eastwest;top=0;left=0;right=0;bottom=0;" parent="v7Q8paS15kk1C6CEqGlS-79" vertex="1">
          <mxGeometry y="90" width="180" height="30" as="geometry" />
        </mxCell>
        <mxCell id="v7Q8paS15kk1C6CEqGlS-84" value="" style="shape=partialRectangle;connectable=0;fillColor=default;top=0;left=0;bottom=0;right=0;editable=1;overflow=hidden;" parent="v7Q8paS15kk1C6CEqGlS-83" vertex="1">
          <mxGeometry width="35" height="30" as="geometry">
            <mxRectangle width="35" height="30" as="alternateBounds" />
          </mxGeometry>
        </mxCell>
        <mxCell id="v7Q8paS15kk1C6CEqGlS-85" value="Limit" style="shape=partialRectangle;connectable=0;fillColor=default;top=0;left=1;bottom=1;right=0;align=left;spacingLeft=6;overflow=hidden;" parent="v7Q8paS15kk1C6CEqGlS-83" vertex="1">
          <mxGeometry x="35" width="145" height="30" as="geometry">
            <mxRectangle width="145" height="30" as="alternateBounds" />
          </mxGeometry>
        </mxCell>
        <mxCell id="v7Q8paS15kk1C6CEqGlS-89" value="" style="shape=tableRow;horizontal=0;startSize=0;swimlaneHead=0;swimlaneBody=0;fillColor=none;collapsible=0;dropTarget=0;points=[[0,0.5],[1,0.5]];portConstraint=eastwest;top=0;left=0;right=0;bottom=0;" parent="v7Q8paS15kk1C6CEqGlS-79" vertex="1">
          <mxGeometry y="120" width="180" height="30" as="geometry" />
        </mxCell>
        <mxCell id="v7Q8paS15kk1C6CEqGlS-90" value="" style="shape=partialRectangle;connectable=0;fillColor=default;top=0;left=0;bottom=0;right=0;editable=1;overflow=hidden;" parent="v7Q8paS15kk1C6CEqGlS-89" vertex="1">
          <mxGeometry width="35" height="30" as="geometry">
            <mxRectangle width="35" height="30" as="alternateBounds" />
          </mxGeometry>
        </mxCell>
        <mxCell id="v7Q8paS15kk1C6CEqGlS-91" value="Type" style="shape=partialRectangle;connectable=0;fillColor=default;top=0;left=1;bottom=1;right=0;align=left;spacingLeft=6;overflow=hidden;" parent="v7Q8paS15kk1C6CEqGlS-89" vertex="1">
          <mxGeometry x="35" width="145" height="30" as="geometry">
            <mxRectangle width="145" height="30" as="alternateBounds" />
          </mxGeometry>
        </mxCell>
        <mxCell id="v7Q8paS15kk1C6CEqGlS-95" value="" style="shape=tableRow;horizontal=0;startSize=0;swimlaneHead=0;swimlaneBody=0;fillColor=none;collapsible=0;dropTarget=0;points=[[0,0.5],[1,0.5]];portConstraint=eastwest;top=0;left=0;right=0;bottom=0;" parent="v7Q8paS15kk1C6CEqGlS-79" vertex="1">
          <mxGeometry y="150" width="180" height="30" as="geometry" />
        </mxCell>
        <mxCell id="v7Q8paS15kk1C6CEqGlS-96" value="" style="shape=partialRectangle;connectable=0;fillColor=default;top=0;left=0;bottom=0;right=0;editable=1;overflow=hidden;" parent="v7Q8paS15kk1C6CEqGlS-95" vertex="1">
          <mxGeometry width="35" height="30" as="geometry">
            <mxRectangle width="35" height="30" as="alternateBounds" />
          </mxGeometry>
        </mxCell>
        <mxCell id="v7Q8paS15kk1C6CEqGlS-97" value="Name" style="shape=partialRectangle;connectable=0;fillColor=default;top=0;left=1;bottom=1;right=0;align=left;spacingLeft=6;overflow=hidden;" parent="v7Q8paS15kk1C6CEqGlS-95" vertex="1">
          <mxGeometry x="35" width="145" height="30" as="geometry">
            <mxRectangle width="145" height="30" as="alternateBounds" />
          </mxGeometry>
        </mxCell>
        <mxCell id="v7Q8paS15kk1C6CEqGlS-92" value="" style="shape=tableRow;horizontal=0;startSize=0;swimlaneHead=0;swimlaneBody=0;fillColor=none;collapsible=0;dropTarget=0;points=[[0,0.5],[1,0.5]];portConstraint=eastwest;top=0;left=0;right=0;bottom=0;" parent="1" vertex="1">
          <mxGeometry x="335" y="270" width="180" height="30" as="geometry" />
        </mxCell>
        <mxCell id="v7Q8paS15kk1C6CEqGlS-93" value="" style="shape=partialRectangle;connectable=0;fillColor=none;top=0;left=0;bottom=0;right=0;editable=1;overflow=hidden;" parent="v7Q8paS15kk1C6CEqGlS-92" vertex="1">
          <mxGeometry width="35" height="30" as="geometry">
            <mxRectangle width="35" height="30" as="alternateBounds" />
          </mxGeometry>
        </mxCell>
        <mxCell id="v7Q8paS15kk1C6CEqGlS-98" value="TestFlow" style="swimlane;html=1;fontStyle=1;childLayout=stackLayout;horizontal=1;startSize=26;fillColor=#e0e0e0;horizontalStack=0;resizeParent=1;resizeLast=0;collapsible=1;marginBottom=0;swimlaneFillColor=#ffffff;fontSize=12;verticalAlign=middle;" parent="1" vertex="1">
          <mxGeometry x="290" y="490" width="140" height="104" as="geometry" />
        </mxCell>
        <mxCell id="v7Q8paS15kk1C6CEqGlS-99" value="Id" style="shape=partialRectangle;top=0;left=0;right=0;bottom=1;html=1;align=left;verticalAlign=middle;fillColor=none;spacingLeft=34;spacingRight=4;whiteSpace=wrap;overflow=hidden;rotatable=0;points=[[0,0.5],[1,0.5]];portConstraint=eastwest;dropTarget=0;fontStyle=5;fontSize=12;" parent="v7Q8paS15kk1C6CEqGlS-98" vertex="1">
          <mxGeometry y="26" width="140" height="26" as="geometry" />
        </mxCell>
        <mxCell id="v7Q8paS15kk1C6CEqGlS-100" value="PK" style="shape=partialRectangle;top=0;left=0;bottom=0;html=1;fillColor=none;align=left;verticalAlign=middle;spacingLeft=4;spacingRight=4;whiteSpace=wrap;overflow=hidden;rotatable=0;points=[];portConstraint=eastwest;part=1;fontStyle=1;fontSize=12;" parent="v7Q8paS15kk1C6CEqGlS-99" vertex="1" connectable="0">
          <mxGeometry width="30" height="26" as="geometry" />
        </mxCell>
        <mxCell id="v7Q8paS15kk1C6CEqGlS-101" value="name" style="shape=partialRectangle;top=0;left=0;right=0;bottom=1;html=1;align=left;verticalAlign=middle;fillColor=none;spacingLeft=34;spacingRight=4;whiteSpace=wrap;overflow=hidden;rotatable=0;points=[[0,0.5],[1,0.5]];portConstraint=eastwest;dropTarget=0;fontSize=12;" parent="v7Q8paS15kk1C6CEqGlS-98" vertex="1">
          <mxGeometry y="52" width="140" height="26" as="geometry" />
        </mxCell>
        <mxCell id="v7Q8paS15kk1C6CEqGlS-102" value="" style="shape=partialRectangle;top=0;left=0;bottom=1;html=1;fillColor=none;align=left;verticalAlign=middle;spacingLeft=4;spacingRight=4;whiteSpace=wrap;overflow=hidden;rotatable=0;points=[];portConstraint=eastwest;part=1;fontSize=12;" parent="v7Q8paS15kk1C6CEqGlS-101" vertex="1" connectable="0">
          <mxGeometry width="30" height="26" as="geometry" />
        </mxCell>
        <mxCell id="v7Q8paS15kk1C6CEqGlS-103" value="passed" style="shape=partialRectangle;top=0;left=0;right=0;bottom=1;html=1;align=left;verticalAlign=middle;fillColor=none;spacingLeft=34;spacingRight=4;whiteSpace=wrap;overflow=hidden;rotatable=0;points=[[0,0.5],[1,0.5]];portConstraint=eastwest;dropTarget=0;fontSize=12;" parent="v7Q8paS15kk1C6CEqGlS-98" vertex="1">
          <mxGeometry y="78" width="140" height="26" as="geometry" />
        </mxCell>
        <mxCell id="v7Q8paS15kk1C6CEqGlS-104" value="" style="shape=partialRectangle;top=0;left=0;bottom=1;html=1;fillColor=none;align=left;verticalAlign=middle;spacingLeft=4;spacingRight=4;whiteSpace=wrap;overflow=hidden;rotatable=0;points=[];portConstraint=eastwest;part=1;fontSize=12;" parent="v7Q8paS15kk1C6CEqGlS-103" vertex="1" connectable="0">
          <mxGeometry width="30" height="26" as="geometry" />
        </mxCell>
        <mxCell id="v7Q8paS15kk1C6CEqGlS-105" value="TestSuite" style="swimlane;html=1;fontStyle=1;childLayout=stackLayout;horizontal=1;startSize=26;fillColor=#e0e0e0;horizontalStack=0;resizeParent=1;resizeLast=0;collapsible=1;marginBottom=0;swimlaneFillColor=#ffffff;fontSize=12;verticalAlign=middle;" parent="1" vertex="1">
          <mxGeometry x="632" y="560" width="158" height="780" as="geometry" />
        </mxCell>
        <mxCell id="v7Q8paS15kk1C6CEqGlS-106" value="Id" style="shape=partialRectangle;top=0;left=0;right=0;bottom=1;html=1;align=left;verticalAlign=middle;fillColor=none;spacingLeft=34;spacingRight=4;whiteSpace=wrap;overflow=hidden;rotatable=0;points=[[0,0.5],[1,0.5]];portConstraint=eastwest;dropTarget=0;fontStyle=5;fontSize=12;" parent="v7Q8paS15kk1C6CEqGlS-105" vertex="1">
          <mxGeometry y="26" width="158" height="26" as="geometry" />
        </mxCell>
        <mxCell id="v7Q8paS15kk1C6CEqGlS-107" value="PK" style="shape=partialRectangle;top=0;left=0;bottom=0;html=1;fillColor=none;align=left;verticalAlign=middle;spacingLeft=4;spacingRight=4;whiteSpace=wrap;overflow=hidden;rotatable=0;points=[];portConstraint=eastwest;part=1;fontStyle=1;fontSize=12;" parent="v7Q8paS15kk1C6CEqGlS-106" vertex="1" connectable="0">
          <mxGeometry width="30" height="26" as="geometry" />
        </mxCell>
        <mxCell id="v7Q8paS15kk1C6CEqGlS-108" value="testFlowID" style="shape=partialRectangle;top=0;left=0;right=0;bottom=1;align=left;verticalAlign=middle;fillColor=none;spacingLeft=34;spacingRight=4;overflow=hidden;rotatable=0;points=[[0,0.5],[1,0.5]];portConstraint=eastwest;dropTarget=0;fontStyle=5;strokeColor=default;whiteSpace=wrap;html=1;fontSize=12;" parent="v7Q8paS15kk1C6CEqGlS-105" vertex="1">
          <mxGeometry y="52" width="158" height="26" as="geometry" />
        </mxCell>
        <mxCell id="v7Q8paS15kk1C6CEqGlS-109" value="FK" style="shape=partialRectangle;top=0;left=0;bottom=0;html=1;fillColor=none;align=left;verticalAlign=middle;spacingLeft=4;spacingRight=4;whiteSpace=wrap;overflow=hidden;rotatable=0;points=[];portConstraint=eastwest;part=1;fontStyle=1;fontSize=12;" parent="v7Q8paS15kk1C6CEqGlS-108" vertex="1" connectable="0">
          <mxGeometry width="30" height="26" as="geometry" />
        </mxCell>
        <mxCell id="v7Q8paS15kk1C6CEqGlS-110" value="prevTestSuiteId" style="shape=partialRectangle;top=0;left=0;right=0;bottom=1;align=left;verticalAlign=middle;fillColor=none;spacingLeft=34;spacingRight=4;overflow=hidden;rotatable=0;points=[[0,0.5],[1,0.5]];portConstraint=eastwest;dropTarget=0;fontStyle=5;strokeColor=default;whiteSpace=wrap;html=1;fontSize=12;" parent="v7Q8paS15kk1C6CEqGlS-105" vertex="1">
          <mxGeometry y="78" width="158" height="26" as="geometry" />
        </mxCell>
        <mxCell id="v7Q8paS15kk1C6CEqGlS-111" value="FK" style="shape=partialRectangle;top=0;left=0;bottom=0;html=1;fillColor=none;align=left;verticalAlign=middle;spacingLeft=4;spacingRight=4;whiteSpace=wrap;overflow=hidden;rotatable=0;points=[];portConstraint=eastwest;part=1;fontStyle=1;fontSize=12;" parent="v7Q8paS15kk1C6CEqGlS-110" vertex="1" connectable="0">
          <mxGeometry width="30" height="26" as="geometry" />
        </mxCell>
        <mxCell id="v7Q8paS15kk1C6CEqGlS-112" value="nextTestSuiteId" style="shape=partialRectangle;top=0;left=0;right=0;bottom=1;align=left;verticalAlign=middle;fillColor=none;spacingLeft=34;spacingRight=4;overflow=hidden;rotatable=0;points=[[0,0.5],[1,0.5]];portConstraint=eastwest;dropTarget=0;fontStyle=5;strokeColor=default;whiteSpace=wrap;html=1;fontSize=12;" parent="v7Q8paS15kk1C6CEqGlS-105" vertex="1">
          <mxGeometry y="104" width="158" height="26" as="geometry" />
        </mxCell>
        <mxCell id="v7Q8paS15kk1C6CEqGlS-113" value="FK" style="shape=partialRectangle;top=0;left=0;bottom=0;html=1;fillColor=none;align=left;verticalAlign=middle;spacingLeft=4;spacingRight=4;whiteSpace=wrap;overflow=hidden;rotatable=0;points=[];portConstraint=eastwest;part=1;fontStyle=1;fontSize=12;" parent="v7Q8paS15kk1C6CEqGlS-112" vertex="1" connectable="0">
          <mxGeometry width="30" height="26" as="geometry" />
        </mxCell>
        <mxCell id="v7Q8paS15kk1C6CEqGlS-114" value="name" style="shape=partialRectangle;top=0;left=0;right=0;bottom=1;html=1;align=left;verticalAlign=middle;fillColor=none;spacingLeft=34;spacingRight=4;whiteSpace=wrap;overflow=hidden;rotatable=0;points=[[0,0.5],[1,0.5]];portConstraint=eastwest;dropTarget=0;fontStyle=0;fontSize=12;" parent="v7Q8paS15kk1C6CEqGlS-105" vertex="1">
          <mxGeometry y="130" width="158" height="26" as="geometry" />
        </mxCell>
        <mxCell id="v7Q8paS15kk1C6CEqGlS-115" value="" style="shape=partialRectangle;top=0;left=0;bottom=1;html=1;fillColor=none;align=left;verticalAlign=middle;spacingLeft=4;spacingRight=4;whiteSpace=wrap;overflow=hidden;rotatable=0;points=[];portConstraint=eastwest;part=1;fontSize=12;" parent="v7Q8paS15kk1C6CEqGlS-114" vertex="1" connectable="0">
          <mxGeometry width="30" height="26" as="geometry" />
        </mxCell>
        <mxCell id="v7Q8paS15kk1C6CEqGlS-116" value="comment" style="shape=partialRectangle;top=0;left=0;right=0;bottom=1;html=1;align=left;verticalAlign=middle;fillColor=none;spacingLeft=34;spacingRight=4;whiteSpace=wrap;overflow=hidden;rotatable=0;points=[[0,0.5],[1,0.5]];portConstraint=eastwest;dropTarget=0;strokeColor=default;fontSize=12;" parent="v7Q8paS15kk1C6CEqGlS-105" vertex="1">
          <mxGeometry y="156" width="158" height="26" as="geometry" />
        </mxCell>
        <mxCell id="v7Q8paS15kk1C6CEqGlS-117" value="" style="shape=partialRectangle;top=0;left=0;bottom=1;html=1;fillColor=none;align=left;verticalAlign=middle;spacingLeft=4;spacingRight=4;whiteSpace=wrap;overflow=hidden;rotatable=0;points=[];portConstraint=eastwest;part=1;fontSize=12;" parent="v7Q8paS15kk1C6CEqGlS-116" vertex="1" connectable="0">
          <mxGeometry width="30" height="26" as="geometry" />
        </mxCell>
        <mxCell id="v7Q8paS15kk1C6CEqGlS-118" value="timingMode" style="shape=partialRectangle;top=0;left=0;right=0;bottom=1;html=1;align=left;verticalAlign=middle;fillColor=none;spacingLeft=34;spacingRight=4;whiteSpace=wrap;overflow=hidden;rotatable=0;points=[[0,0.5],[1,0.5]];portConstraint=eastwest;dropTarget=0;strokeColor=default;fontSize=12;" parent="v7Q8paS15kk1C6CEqGlS-105" vertex="1">
          <mxGeometry y="182" width="158" height="26" as="geometry" />
        </mxCell>
        <mxCell id="v7Q8paS15kk1C6CEqGlS-119" value="" style="shape=partialRectangle;top=0;left=0;bottom=1;html=1;fillColor=none;align=left;verticalAlign=middle;spacingLeft=4;spacingRight=4;whiteSpace=wrap;overflow=hidden;rotatable=0;points=[];portConstraint=eastwest;part=1;fontSize=12;" parent="v7Q8paS15kk1C6CEqGlS-118" vertex="1" connectable="0">
          <mxGeometry width="30" height="26" as="geometry" />
        </mxCell>
        <mxCell id="v7Q8paS15kk1C6CEqGlS-120" value="timingSpecId" style="shape=partialRectangle;top=1;left=0;right=0;bottom=1;align=left;verticalAlign=middle;fillColor=none;spacingLeft=34;spacingRight=4;overflow=hidden;rotatable=0;points=[[0,0.5],[1,0.5]];portConstraint=eastwest;dropTarget=0;fontStyle=5;strokeColor=default;whiteSpace=wrap;html=1;perimeterSpacing=0;fontSize=12;" parent="v7Q8paS15kk1C6CEqGlS-105" vertex="1">
          <mxGeometry y="208" width="158" height="26" as="geometry" />
        </mxCell>
        <mxCell id="v7Q8paS15kk1C6CEqGlS-121" value="FK" style="shape=partialRectangle;top=0;left=0;bottom=0;html=1;fillColor=none;align=left;verticalAlign=middle;spacingLeft=4;spacingRight=4;whiteSpace=wrap;overflow=hidden;rotatable=0;points=[];portConstraint=eastwest;part=1;fontStyle=1;fontSize=12;" parent="v7Q8paS15kk1C6CEqGlS-120" vertex="1" connectable="0">
          <mxGeometry width="30" height="26" as="geometry" />
        </mxCell>
        <mxCell id="v7Q8paS15kk1C6CEqGlS-122" value="levelMode" style="shape=partialRectangle;top=0;left=0;right=0;bottom=0;html=1;align=left;verticalAlign=middle;fillColor=none;spacingLeft=34;spacingRight=4;whiteSpace=wrap;overflow=hidden;rotatable=0;points=[[0,0.5],[1,0.5]];portConstraint=eastwest;dropTarget=0;strokeColor=default;fontSize=12;" parent="v7Q8paS15kk1C6CEqGlS-105" vertex="1">
          <mxGeometry y="234" width="158" height="26" as="geometry" />
        </mxCell>
        <mxCell id="v7Q8paS15kk1C6CEqGlS-123" value="" style="shape=partialRectangle;top=0;left=0;bottom=0;html=1;fillColor=none;align=left;verticalAlign=middle;spacingLeft=4;spacingRight=4;whiteSpace=wrap;overflow=hidden;rotatable=0;points=[];portConstraint=eastwest;part=1;fontSize=12;" parent="v7Q8paS15kk1C6CEqGlS-122" vertex="1" connectable="0">
          <mxGeometry width="30" height="26" as="geometry" />
        </mxCell>
        <mxCell id="v7Q8paS15kk1C6CEqGlS-124" value="levelSpecId" style="shape=partialRectangle;top=1;left=0;right=0;bottom=1;align=left;verticalAlign=middle;fillColor=none;spacingLeft=34;spacingRight=4;overflow=hidden;rotatable=0;points=[[0,0.5],[1,0.5]];portConstraint=eastwest;dropTarget=0;fontStyle=5;strokeColor=default;whiteSpace=wrap;html=1;perimeterSpacing=0;fontSize=12;" parent="v7Q8paS15kk1C6CEqGlS-105" vertex="1">
          <mxGeometry y="260" width="158" height="26" as="geometry" />
        </mxCell>
        <mxCell id="v7Q8paS15kk1C6CEqGlS-125" value="FK" style="shape=partialRectangle;top=0;left=0;bottom=0;html=1;fillColor=none;align=left;verticalAlign=middle;spacingLeft=4;spacingRight=4;whiteSpace=wrap;overflow=hidden;rotatable=0;points=[];portConstraint=eastwest;part=1;fontStyle=1;fontSize=12;" parent="v7Q8paS15kk1C6CEqGlS-124" vertex="1" connectable="0">
          <mxGeometry width="30" height="26" as="geometry" />
        </mxCell>
        <mxCell id="v7Q8paS15kk1C6CEqGlS-126" value="analog" style="shape=partialRectangle;top=0;left=0;right=0;bottom=0;html=1;align=left;verticalAlign=middle;fillColor=none;spacingLeft=34;spacingRight=4;whiteSpace=wrap;overflow=hidden;rotatable=0;points=[[0,0.5],[1,0.5]];portConstraint=eastwest;dropTarget=0;strokeColor=default;fontSize=12;" parent="v7Q8paS15kk1C6CEqGlS-105" vertex="1">
          <mxGeometry y="286" width="158" height="26" as="geometry" />
        </mxCell>
        <mxCell id="v7Q8paS15kk1C6CEqGlS-127" value="" style="shape=partialRectangle;top=0;left=0;bottom=0;html=1;fillColor=none;align=left;verticalAlign=middle;spacingLeft=4;spacingRight=4;whiteSpace=wrap;overflow=hidden;rotatable=0;points=[];portConstraint=eastwest;part=1;fontSize=12;" parent="v7Q8paS15kk1C6CEqGlS-126" vertex="1" connectable="0">
          <mxGeometry width="30" height="26" as="geometry" />
        </mxCell>
        <mxCell id="v7Q8paS15kk1C6CEqGlS-128" value="&lt;u style=&quot;font-size: 12px;&quot;&gt;patternId&lt;/u&gt;" style="shape=partialRectangle;top=1;left=0;right=0;bottom=1;html=1;align=left;verticalAlign=middle;fillColor=none;spacingLeft=34;spacingRight=4;whiteSpace=wrap;overflow=hidden;rotatable=0;points=[[0,0.5],[1,0.5]];portConstraint=eastwest;dropTarget=0;strokeColor=default;fontStyle=1;fontSize=12;" parent="v7Q8paS15kk1C6CEqGlS-105" vertex="1">
          <mxGeometry y="312" width="158" height="26" as="geometry" />
        </mxCell>
        <mxCell id="v7Q8paS15kk1C6CEqGlS-129" value="&lt;b style=&quot;font-size: 12px;&quot;&gt;FK&lt;/b&gt;" style="shape=partialRectangle;top=0;left=0;bottom=0;html=1;fillColor=none;align=left;verticalAlign=middle;spacingLeft=4;spacingRight=4;whiteSpace=wrap;overflow=hidden;rotatable=0;points=[];portConstraint=eastwest;part=1;fontSize=12;" parent="v7Q8paS15kk1C6CEqGlS-128" vertex="1" connectable="0">
          <mxGeometry width="30" height="26" as="geometry" />
        </mxCell>
        <mxCell id="v7Q8paS15kk1C6CEqGlS-130" value="context" style="shape=partialRectangle;top=0;left=0;right=0;bottom=1;html=1;align=left;verticalAlign=middle;fillColor=none;spacingLeft=34;spacingRight=4;whiteSpace=wrap;overflow=hidden;rotatable=0;points=[[0,0.5],[1,0.5]];portConstraint=eastwest;dropTarget=0;strokeColor=default;fontSize=12;" parent="v7Q8paS15kk1C6CEqGlS-105" vertex="1">
          <mxGeometry y="338" width="158" height="26" as="geometry" />
        </mxCell>
        <mxCell id="v7Q8paS15kk1C6CEqGlS-131" value="" style="shape=partialRectangle;top=0;left=0;bottom=1;html=1;fillColor=none;align=left;verticalAlign=middle;spacingLeft=4;spacingRight=4;whiteSpace=wrap;overflow=hidden;rotatable=0;points=[];portConstraint=eastwest;part=1;fontSize=12;" parent="v7Q8paS15kk1C6CEqGlS-130" vertex="1" connectable="0">
          <mxGeometry width="30" height="26" as="geometry" />
        </mxCell>
        <mxCell id="v7Q8paS15kk1C6CEqGlS-132" value="testType" style="shape=partialRectangle;top=0;left=0;right=0;bottom=1;html=1;align=left;verticalAlign=middle;fillColor=none;spacingLeft=34;spacingRight=4;whiteSpace=wrap;overflow=hidden;rotatable=0;points=[[0,0.5],[1,0.5]];portConstraint=eastwest;dropTarget=0;strokeColor=default;fontSize=12;" parent="v7Q8paS15kk1C6CEqGlS-105" vertex="1">
          <mxGeometry y="364" width="158" height="26" as="geometry" />
        </mxCell>
        <mxCell id="v7Q8paS15kk1C6CEqGlS-133" value="" style="shape=partialRectangle;top=0;left=0;bottom=1;html=1;fillColor=none;align=left;verticalAlign=middle;spacingLeft=4;spacingRight=4;whiteSpace=wrap;overflow=hidden;rotatable=0;points=[];portConstraint=eastwest;part=1;fontSize=12;" parent="v7Q8paS15kk1C6CEqGlS-132" vertex="1" connectable="0">
          <mxGeometry width="30" height="26" as="geometry" />
        </mxCell>
        <mxCell id="v7Q8paS15kk1C6CEqGlS-134" value="testMethodId" style="shape=partialRectangle;top=0;left=0;right=0;bottom=1;html=1;align=left;verticalAlign=middle;fillColor=none;spacingLeft=34;spacingRight=4;whiteSpace=wrap;overflow=hidden;rotatable=0;points=[[0,0.5],[1,0.5]];portConstraint=eastwest;dropTarget=0;strokeColor=default;fontSize=12;" parent="v7Q8paS15kk1C6CEqGlS-105" vertex="1">
          <mxGeometry y="390" width="158" height="26" as="geometry" />
        </mxCell>
        <mxCell id="v7Q8paS15kk1C6CEqGlS-135" value="" style="shape=partialRectangle;top=0;left=0;bottom=1;html=1;fillColor=none;align=left;verticalAlign=middle;spacingLeft=4;spacingRight=4;whiteSpace=wrap;overflow=hidden;rotatable=0;points=[];portConstraint=eastwest;part=1;fontSize=12;" parent="v7Q8paS15kk1C6CEqGlS-134" vertex="1" connectable="0">
          <mxGeometry width="30" height="26" as="geometry" />
        </mxCell>
        <mxCell id="v7Q8paS15kk1C6CEqGlS-136" value="testMethodParams" style="shape=partialRectangle;top=0;left=0;right=0;bottom=1;html=1;align=left;verticalAlign=middle;fillColor=none;spacingLeft=34;spacingRight=4;whiteSpace=wrap;overflow=hidden;rotatable=0;points=[[0,0.5],[1,0.5]];portConstraint=eastwest;dropTarget=0;fontSize=12;" parent="v7Q8paS15kk1C6CEqGlS-105" vertex="1">
          <mxGeometry y="416" width="158" height="26" as="geometry" />
        </mxCell>
        <mxCell id="v7Q8paS15kk1C6CEqGlS-137" value="" style="shape=partialRectangle;top=0;left=0;bottom=1;html=1;fillColor=none;align=left;verticalAlign=middle;spacingLeft=4;spacingRight=4;whiteSpace=wrap;overflow=hidden;rotatable=0;points=[];portConstraint=eastwest;part=1;fontSize=12;" parent="v7Q8paS15kk1C6CEqGlS-136" vertex="1" connectable="0">
          <mxGeometry width="30" height="26" as="geometry" />
        </mxCell>
        <mxCell id="v7Q8paS15kk1C6CEqGlS-138" value="&lt;span style=&quot;margin: 0px; padding: 0px; user-select: text; -webkit-user-drag: none; -webkit-tap-highlight-color: transparent; font-family: Calibri, Calibri_EmbeddedFont, Calibri_MSFontService, sans-serif; font-size: 12px; font-variant-ligatures: none; background-color: rgb(255, 255, 255);&quot; class=&quot;NormalTextRun SCXW200133550 BCX8&quot;&gt;isS&lt;/span&gt;&lt;span style=&quot;margin: 0px; padding: 0px; user-select: text; -webkit-user-drag: none; -webkit-tap-highlight-color: transparent; font-family: Calibri, Calibri_EmbeddedFont, Calibri_MSFontService, sans-serif; font-size: 12px; font-variant-ligatures: none; background-color: rgb(255, 255, 255);&quot; class=&quot;NormalTextRun SCXW200133550 BCX8&quot;&gt;etFail&amp;nbsp;&lt;/span&gt;" style="shape=partialRectangle;top=0;left=0;right=0;bottom=1;html=1;align=left;verticalAlign=middle;fillColor=none;spacingLeft=34;spacingRight=4;whiteSpace=wrap;overflow=hidden;rotatable=0;points=[[0,0.5],[1,0.5]];portConstraint=eastwest;dropTarget=0;fontSize=12;" parent="v7Q8paS15kk1C6CEqGlS-105" vertex="1">
          <mxGeometry y="442" width="158" height="26" as="geometry" />
        </mxCell>
        <mxCell id="v7Q8paS15kk1C6CEqGlS-139" value="" style="shape=partialRectangle;top=0;left=0;bottom=1;html=1;fillColor=none;align=left;verticalAlign=middle;spacingLeft=4;spacingRight=4;whiteSpace=wrap;overflow=hidden;rotatable=0;points=[];portConstraint=eastwest;part=1;fontSize=12;" parent="v7Q8paS15kk1C6CEqGlS-138" vertex="1" connectable="0">
          <mxGeometry width="30" height="26" as="geometry" />
        </mxCell>
        <mxCell id="v7Q8paS15kk1C6CEqGlS-140" value="&lt;span style=&quot;margin: 0px; padding: 0px; user-select: text; -webkit-user-drag: none; -webkit-tap-highlight-color: transparent; font-family: Calibri, Calibri_EmbeddedFont, Calibri_MSFontService, sans-serif; font-size: 12px; font-variant-ligatures: none; background-color: rgb(255, 255, 255);&quot; class=&quot;NormalTextRun SCXW100570921 BCX8&quot;&gt;isS&lt;/span&gt;&lt;span style=&quot;margin: 0px; padding: 0px; user-select: text; -webkit-user-drag: none; -webkit-tap-highlight-color: transparent; font-family: Calibri, Calibri_EmbeddedFont, Calibri_MSFontService, sans-serif; font-size: 12px; font-variant-ligatures: none; background-color: rgb(255, 255, 255);&quot; class=&quot;NormalTextRun SCXW100570921 BCX8&quot;&gt;etPass&lt;/span&gt;" style="shape=partialRectangle;top=0;left=0;right=0;bottom=1;html=1;align=left;verticalAlign=middle;fillColor=none;spacingLeft=34;spacingRight=4;whiteSpace=wrap;overflow=hidden;rotatable=0;points=[[0,0.5],[1,0.5]];portConstraint=eastwest;dropTarget=0;fontSize=12;" parent="v7Q8paS15kk1C6CEqGlS-105" vertex="1">
          <mxGeometry y="468" width="158" height="26" as="geometry" />
        </mxCell>
        <mxCell id="v7Q8paS15kk1C6CEqGlS-141" value="" style="shape=partialRectangle;top=0;left=0;bottom=1;html=1;fillColor=none;align=left;verticalAlign=middle;spacingLeft=4;spacingRight=4;whiteSpace=wrap;overflow=hidden;rotatable=0;points=[];portConstraint=eastwest;part=1;fontSize=12;" parent="v7Q8paS15kk1C6CEqGlS-140" vertex="1" connectable="0">
          <mxGeometry width="30" height="26" as="geometry" />
        </mxCell>
        <mxCell id="v7Q8paS15kk1C6CEqGlS-142" value="&lt;span style=&quot;margin: 0px; padding: 0px; user-select: text; -webkit-user-drag: none; -webkit-tap-highlight-color: transparent; font-family: Calibri, Calibri_EmbeddedFont, Calibri_MSFontService, sans-serif; font-size: 12px; font-variant-ligatures: none; background-color: rgb(255, 255, 255);&quot; class=&quot;NormalTextRun SCXW239536421 BCX8&quot;&gt;bypass&lt;/span&gt;" style="shape=partialRectangle;top=0;left=0;right=0;bottom=1;html=1;align=left;verticalAlign=middle;fillColor=none;spacingLeft=34;spacingRight=4;whiteSpace=wrap;overflow=hidden;rotatable=0;points=[[0,0.5],[1,0.5]];portConstraint=eastwest;dropTarget=0;fontSize=12;" parent="v7Q8paS15kk1C6CEqGlS-105" vertex="1">
          <mxGeometry y="494" width="158" height="26" as="geometry" />
        </mxCell>
        <mxCell id="v7Q8paS15kk1C6CEqGlS-143" value="" style="shape=partialRectangle;top=0;left=0;bottom=1;html=1;fillColor=none;align=left;verticalAlign=middle;spacingLeft=4;spacingRight=4;whiteSpace=wrap;overflow=hidden;rotatable=0;points=[];portConstraint=eastwest;part=1;fontSize=12;" parent="v7Q8paS15kk1C6CEqGlS-142" vertex="1" connectable="0">
          <mxGeometry width="30" height="26" as="geometry" />
        </mxCell>
        <mxCell id="v7Q8paS15kk1C6CEqGlS-144" value="testLevel" style="shape=partialRectangle;top=0;left=0;right=0;bottom=1;html=1;align=left;verticalAlign=middle;fillColor=none;spacingLeft=34;spacingRight=4;whiteSpace=wrap;overflow=hidden;rotatable=0;points=[[0,0.5],[1,0.5]];portConstraint=eastwest;dropTarget=0;fontSize=12;" parent="v7Q8paS15kk1C6CEqGlS-105" vertex="1">
          <mxGeometry y="520" width="158" height="26" as="geometry" />
        </mxCell>
        <mxCell id="v7Q8paS15kk1C6CEqGlS-145" value="" style="shape=partialRectangle;top=0;left=0;bottom=1;html=1;fillColor=none;align=left;verticalAlign=middle;spacingLeft=4;spacingRight=4;whiteSpace=wrap;overflow=hidden;rotatable=0;points=[];portConstraint=eastwest;part=1;fontSize=12;" parent="v7Q8paS15kk1C6CEqGlS-144" vertex="1" connectable="0">
          <mxGeometry width="30" height="26" as="geometry" />
        </mxCell>
        <mxCell id="v7Q8paS15kk1C6CEqGlS-146" value="&lt;span style=&quot;margin: 0px; padding: 0px; user-select: text; -webkit-user-drag: none; -webkit-tap-highlight-color: transparent; font-family: Calibri, Calibri_EmbeddedFont, Calibri_MSFontService, sans-serif; font-size: 12px; font-variant-ligatures: none; background-color: rgb(255, 255, 255);&quot; class=&quot;NormalTextRun SCXW135827303 BCX8&quot;&gt;test&lt;/span&gt;&lt;span style=&quot;margin: 0px; padding: 0px; user-select: text; -webkit-user-drag: none; -webkit-tap-highlight-color: transparent; background-repeat: repeat-x; background-position: left bottom; background-image: var(--urlContextualSpellingAndGrammarErrorV2,url(&amp;quot;data:image/svg+xml;base64,PD94bWwgdmVyc2lvbj0iMS4wIiBlbmNvZGluZz0iVVRGLTgiPz4KPHN2ZyB3aWR0aD0iNXB4IiBoZWlnaHQ9IjNweCIgdmlld0JveD0iMCAwIDUgMyIgdmVyc2lvbj0iMS4xIiB4bWxucz0iaHR0cDovL3d3dy53My5vcmcvMjAwMC9zdmciIHhtbG5zOnhsaW5rPSJodHRwOi8vd3d3LnczLm9yZy8xOTk5L3hsaW5rIj4KICAgIDwhLS0gR2VuZXJhdG9yOiBTa2V0Y2ggNTUuMiAoNzgxODEpIC0gaHR0cHM6Ly9za2V0Y2hhcHAuY29tIC0tPgogICAgPHRpdGxlPmdyYW1tYXJfZG91YmxlX2xpbmU8L3RpdGxlPgogICAgPGRlc2M+Q3JlYXRlZCB3aXRoIFNrZXRjaC48L2Rlc2M+CiAgICA8ZyBpZD0iZ3JhbW1hcl9kb3VibGVfbGluZSIgc3Ryb2tlPSJub25lIiBzdHJva2Utd2lkdGg9IjEiIGZpbGw9Im5vbmUiIGZpbGwtcnVsZT0iZXZlbm9kZCIgc3Ryb2tlLWxpbmVjYXA9InJvdW5kIj4KICAgICAgICA8ZyBpZD0iR3JhbW1hci1UaWxlLUNvcHkiIHN0cm9rZT0iIzMzNTVGRiI+CiAgICAgICAgICAgIDxwYXRoIGQ9Ik0wLDAuNSBMNSwwLjUiIGlkPSJMaW5lLTItQ29weS0xMCI+PC9wYXRoPgogICAgICAgICAgICA8cGF0aCBkPSJNMCwyLjUgTDUsMi41IiBpZD0iTGluZS0yLUNvcHktMTEiPjwvcGF0aD4KICAgICAgICA8L2c+CiAgICA8L2c+Cjwvc3ZnPg==&amp;quot;)); border-bottom: 1px solid transparent; font-family: Calibri, Calibri_EmbeddedFont, Calibri_MSFontService, sans-serif; font-size: 12px; font-variant-ligatures: none; background-color: rgb(255, 255, 255);&quot; class=&quot;NormalTextRun ContextualSpellingAndGrammarErrorV2Themed SCXW135827303 BCX8&quot;&gt;Number&lt;/span&gt;" style="shape=partialRectangle;top=0;left=0;right=0;bottom=1;html=1;align=left;verticalAlign=middle;fillColor=none;spacingLeft=34;spacingRight=4;whiteSpace=wrap;overflow=hidden;rotatable=0;points=[[0,0.5],[1,0.5]];portConstraint=eastwest;dropTarget=0;fontSize=12;" parent="v7Q8paS15kk1C6CEqGlS-105" vertex="1">
          <mxGeometry y="546" width="158" height="26" as="geometry" />
        </mxCell>
        <mxCell id="v7Q8paS15kk1C6CEqGlS-147" value="" style="shape=partialRectangle;top=0;left=0;bottom=1;html=1;fillColor=none;align=left;verticalAlign=middle;spacingLeft=4;spacingRight=4;whiteSpace=wrap;overflow=hidden;rotatable=0;points=[];portConstraint=eastwest;part=1;fontSize=12;" parent="v7Q8paS15kk1C6CEqGlS-146" vertex="1" connectable="0">
          <mxGeometry width="30" height="26" as="geometry" />
        </mxCell>
        <mxCell id="v7Q8paS15kk1C6CEqGlS-148" value="&lt;span style=&quot;font-size: 12px;&quot;&gt;totalPass&lt;/span&gt;" style="shape=partialRectangle;top=0;left=0;right=0;bottom=1;html=1;align=left;verticalAlign=middle;fillColor=none;spacingLeft=34;spacingRight=4;whiteSpace=wrap;overflow=hidden;rotatable=0;points=[[0,0.5],[1,0.5]];portConstraint=eastwest;dropTarget=0;fontSize=12;" parent="v7Q8paS15kk1C6CEqGlS-105" vertex="1">
          <mxGeometry y="572" width="158" height="26" as="geometry" />
        </mxCell>
        <mxCell id="v7Q8paS15kk1C6CEqGlS-149" value="" style="shape=partialRectangle;top=0;left=0;bottom=1;html=1;fillColor=none;align=left;verticalAlign=middle;spacingLeft=4;spacingRight=4;whiteSpace=wrap;overflow=hidden;rotatable=0;points=[];portConstraint=eastwest;part=1;fontSize=12;" parent="v7Q8paS15kk1C6CEqGlS-148" vertex="1" connectable="0">
          <mxGeometry width="30" height="26" as="geometry" />
        </mxCell>
        <mxCell id="v7Q8paS15kk1C6CEqGlS-150" value="&lt;span style=&quot;font-size: 12px;&quot;&gt;totalFail&lt;/span&gt;" style="shape=partialRectangle;top=0;left=0;right=0;bottom=1;html=1;align=left;verticalAlign=middle;fillColor=none;spacingLeft=34;spacingRight=4;whiteSpace=wrap;overflow=hidden;rotatable=0;points=[[0,0.5],[1,0.5]];portConstraint=eastwest;dropTarget=0;fontSize=12;" parent="v7Q8paS15kk1C6CEqGlS-105" vertex="1">
          <mxGeometry y="598" width="158" height="26" as="geometry" />
        </mxCell>
        <mxCell id="v7Q8paS15kk1C6CEqGlS-151" value="" style="shape=partialRectangle;top=0;left=0;bottom=1;html=1;fillColor=none;align=left;verticalAlign=middle;spacingLeft=4;spacingRight=4;whiteSpace=wrap;overflow=hidden;rotatable=0;points=[];portConstraint=eastwest;part=1;fontSize=12;" parent="v7Q8paS15kk1C6CEqGlS-150" vertex="1" connectable="0">
          <mxGeometry width="30" height="26" as="geometry" />
        </mxCell>
        <mxCell id="v7Q8paS15kk1C6CEqGlS-152" value="&lt;span style=&quot;font-size: 12px;&quot;&gt;aveExecTime&lt;/span&gt;" style="shape=partialRectangle;top=0;left=0;right=0;bottom=1;html=1;align=left;verticalAlign=middle;fillColor=none;spacingLeft=34;spacingRight=4;whiteSpace=wrap;overflow=hidden;rotatable=0;points=[[0,0.5],[1,0.5]];portConstraint=eastwest;dropTarget=0;fontSize=12;" parent="v7Q8paS15kk1C6CEqGlS-105" vertex="1">
          <mxGeometry y="624" width="158" height="26" as="geometry" />
        </mxCell>
        <mxCell id="v7Q8paS15kk1C6CEqGlS-153" value="" style="shape=partialRectangle;top=0;left=0;bottom=1;html=1;fillColor=none;align=left;verticalAlign=middle;spacingLeft=4;spacingRight=4;whiteSpace=wrap;overflow=hidden;rotatable=0;points=[];portConstraint=eastwest;part=1;fontSize=12;" parent="v7Q8paS15kk1C6CEqGlS-152" vertex="1" connectable="0">
          <mxGeometry width="30" height="26" as="geometry" />
        </mxCell>
        <mxCell id="v7Q8paS15kk1C6CEqGlS-154" value="&lt;span style=&quot;font-size: 12px;&quot;&gt;totalExecTime&lt;/span&gt;" style="shape=partialRectangle;top=0;left=0;right=0;bottom=1;html=1;align=left;verticalAlign=middle;fillColor=none;spacingLeft=34;spacingRight=4;whiteSpace=wrap;overflow=hidden;rotatable=0;points=[[0,0.5],[1,0.5]];portConstraint=eastwest;dropTarget=0;fontSize=12;" parent="v7Q8paS15kk1C6CEqGlS-105" vertex="1">
          <mxGeometry y="650" width="158" height="26" as="geometry" />
        </mxCell>
        <mxCell id="v7Q8paS15kk1C6CEqGlS-155" value="" style="shape=partialRectangle;top=0;left=0;bottom=1;html=1;fillColor=none;align=left;verticalAlign=middle;spacingLeft=4;spacingRight=4;whiteSpace=wrap;overflow=hidden;rotatable=0;points=[];portConstraint=eastwest;part=1;fontSize=12;" parent="v7Q8paS15kk1C6CEqGlS-154" vertex="1" connectable="0">
          <mxGeometry width="30" height="26" as="geometry" />
        </mxCell>
        <mxCell id="v7Q8paS15kk1C6CEqGlS-156" value="&lt;span style=&quot;font-size: 12px;&quot;&gt;testResultRawData&lt;/span&gt;" style="shape=partialRectangle;top=0;left=0;right=0;bottom=1;html=1;align=left;verticalAlign=middle;fillColor=none;spacingLeft=34;spacingRight=4;whiteSpace=wrap;overflow=hidden;rotatable=0;points=[[0,0.5],[1,0.5]];portConstraint=eastwest;dropTarget=0;fontSize=12;" parent="v7Q8paS15kk1C6CEqGlS-105" vertex="1">
          <mxGeometry y="676" width="158" height="26" as="geometry" />
        </mxCell>
        <mxCell id="v7Q8paS15kk1C6CEqGlS-157" value="" style="shape=partialRectangle;top=0;left=0;bottom=1;html=1;fillColor=none;align=left;verticalAlign=middle;spacingLeft=4;spacingRight=4;whiteSpace=wrap;overflow=hidden;rotatable=0;points=[];portConstraint=eastwest;part=1;fontSize=12;" parent="v7Q8paS15kk1C6CEqGlS-156" vertex="1" connectable="0">
          <mxGeometry width="30" height="26" as="geometry" />
        </mxCell>
        <mxCell id="v7Q8paS15kk1C6CEqGlS-158" value="&lt;span style=&quot;font-size: 12px;&quot;&gt;siteMatch&lt;/span&gt;" style="shape=partialRectangle;top=0;left=0;right=0;bottom=1;html=1;align=left;verticalAlign=middle;fillColor=none;spacingLeft=34;spacingRight=4;whiteSpace=wrap;overflow=hidden;rotatable=0;points=[[0,0.5],[1,0.5]];portConstraint=eastwest;dropTarget=0;fontSize=12;" parent="v7Q8paS15kk1C6CEqGlS-105" vertex="1">
          <mxGeometry y="702" width="158" height="26" as="geometry" />
        </mxCell>
        <mxCell id="v7Q8paS15kk1C6CEqGlS-159" value="" style="shape=partialRectangle;top=0;left=0;bottom=1;html=1;fillColor=none;align=left;verticalAlign=middle;spacingLeft=4;spacingRight=4;whiteSpace=wrap;overflow=hidden;rotatable=0;points=[];portConstraint=eastwest;part=1;fontSize=12;" parent="v7Q8paS15kk1C6CEqGlS-158" vertex="1" connectable="0">
          <mxGeometry width="30" height="26" as="geometry" />
        </mxCell>
        <mxCell id="v7Q8paS15kk1C6CEqGlS-160" value="&lt;span style=&quot;font-size: 12px;&quot;&gt;allowParallel&lt;/span&gt;" style="shape=partialRectangle;top=0;left=0;right=0;bottom=1;html=1;align=left;verticalAlign=middle;fillColor=none;spacingLeft=34;spacingRight=4;whiteSpace=wrap;overflow=hidden;rotatable=0;points=[[0,0.5],[1,0.5]];portConstraint=eastwest;dropTarget=0;fontSize=12;" parent="v7Q8paS15kk1C6CEqGlS-105" vertex="1">
          <mxGeometry y="728" width="158" height="26" as="geometry" />
        </mxCell>
        <mxCell id="v7Q8paS15kk1C6CEqGlS-161" value="" style="shape=partialRectangle;top=0;left=0;bottom=1;html=1;fillColor=none;align=left;verticalAlign=middle;spacingLeft=4;spacingRight=4;whiteSpace=wrap;overflow=hidden;rotatable=0;points=[];portConstraint=eastwest;part=1;fontSize=12;" parent="v7Q8paS15kk1C6CEqGlS-160" vertex="1" connectable="0">
          <mxGeometry width="30" height="26" as="geometry" />
        </mxCell>
        <mxCell id="v7Q8paS15kk1C6CEqGlS-162" value="&lt;span style=&quot;font-size: 12px;&quot;&gt;cycle&lt;/span&gt;" style="shape=partialRectangle;top=0;left=0;right=0;bottom=1;html=1;align=left;verticalAlign=middle;fillColor=none;spacingLeft=34;spacingRight=4;whiteSpace=wrap;overflow=hidden;rotatable=0;points=[[0,0.5],[1,0.5]];portConstraint=eastwest;dropTarget=0;fontSize=12;" parent="v7Q8paS15kk1C6CEqGlS-105" vertex="1">
          <mxGeometry y="754" width="158" height="26" as="geometry" />
        </mxCell>
        <mxCell id="v7Q8paS15kk1C6CEqGlS-163" value="" style="shape=partialRectangle;top=0;left=0;bottom=1;html=1;fillColor=none;align=left;verticalAlign=middle;spacingLeft=4;spacingRight=4;whiteSpace=wrap;overflow=hidden;rotatable=0;points=[];portConstraint=eastwest;part=1;fontSize=12;" parent="v7Q8paS15kk1C6CEqGlS-162" vertex="1" connectable="0">
          <mxGeometry width="30" height="26" as="geometry" />
        </mxCell>
        <mxCell id="v7Q8paS15kk1C6CEqGlS-164" value="" style="edgeStyle=entityRelationEdgeStyle;fontSize=12;html=1;endArrow=ERoneToMany;rounded=0;exitX=0.993;exitY=0.038;exitDx=0;exitDy=0;exitPerimeter=0;entryX=0;entryY=0.5;entryDx=0;entryDy=0;verticalAlign=middle;" parent="1" source="v7Q8paS15kk1C6CEqGlS-101" target="v7Q8paS15kk1C6CEqGlS-108" edge="1">
          <mxGeometry width="100" height="100" relative="1" as="geometry">
            <mxPoint x="502" y="914" as="sourcePoint" />
            <mxPoint x="602" y="814" as="targetPoint" />
          </mxGeometry>
        </mxCell>
        <mxCell id="v7Q8paS15kk1C6CEqGlS-165" value="Specification" style="shape=table;startSize=30;container=1;collapsible=1;childLayout=tableLayout;fixedRows=1;rowLines=0;fontStyle=1;align=center;resizeLast=1;fontSize=12;html=1;fillColor=#E0E0E0;verticalAlign=middle;strokeWidth=1;" parent="1" vertex="1">
          <mxGeometry x="950" y="482" width="180" height="120" as="geometry" />
        </mxCell>
        <mxCell id="v7Q8paS15kk1C6CEqGlS-166" value="" style="shape=tableRow;horizontal=0;startSize=0;swimlaneHead=0;swimlaneBody=0;fillColor=none;collapsible=0;dropTarget=0;points=[[0,0.5],[1,0.5]];portConstraint=eastwest;top=0;left=0;right=0;bottom=1;fontSize=12;strokeColor=default;html=1;verticalAlign=middle;strokeWidth=1;" parent="v7Q8paS15kk1C6CEqGlS-165" vertex="1">
          <mxGeometry y="30" width="180" height="30" as="geometry" />
        </mxCell>
        <mxCell id="v7Q8paS15kk1C6CEqGlS-167" value="PK" style="shape=partialRectangle;connectable=0;top=0;left=1;bottom=1;right=0;fontStyle=1;overflow=hidden;fontSize=12;html=1;verticalAlign=middle;strokeWidth=1;" parent="v7Q8paS15kk1C6CEqGlS-166" vertex="1">
          <mxGeometry width="30" height="30" as="geometry">
            <mxRectangle width="30" height="30" as="alternateBounds" />
          </mxGeometry>
        </mxCell>
        <mxCell id="v7Q8paS15kk1C6CEqGlS-168" value="Id" style="shape=partialRectangle;connectable=0;top=0;left=1;bottom=1;right=1;align=left;spacingLeft=6;fontStyle=5;overflow=hidden;fontSize=12;html=1;verticalAlign=middle;strokeWidth=1;" parent="v7Q8paS15kk1C6CEqGlS-166" vertex="1">
          <mxGeometry x="30" width="150" height="30" as="geometry">
            <mxRectangle width="150" height="30" as="alternateBounds" />
          </mxGeometry>
        </mxCell>
        <mxCell id="v7Q8paS15kk1C6CEqGlS-169" value="" style="shape=tableRow;horizontal=0;startSize=0;swimlaneHead=0;swimlaneBody=0;fillColor=none;collapsible=0;dropTarget=0;points=[[0,0.5],[1,0.5]];portConstraint=eastwest;top=0;left=0;right=0;bottom=1;fontSize=12;strokeColor=default;html=1;verticalAlign=middle;strokeWidth=1;" parent="v7Q8paS15kk1C6CEqGlS-165" vertex="1">
          <mxGeometry y="60" width="180" height="30" as="geometry" />
        </mxCell>
        <mxCell id="v7Q8paS15kk1C6CEqGlS-170" value="" style="shape=partialRectangle;connectable=0;top=0;left=1;bottom=1;right=0;editable=1;overflow=hidden;fontSize=12;html=1;verticalAlign=middle;strokeWidth=1;" parent="v7Q8paS15kk1C6CEqGlS-169" vertex="1">
          <mxGeometry width="30" height="30" as="geometry">
            <mxRectangle width="30" height="30" as="alternateBounds" />
          </mxGeometry>
        </mxCell>
        <mxCell id="v7Q8paS15kk1C6CEqGlS-171" value="equationSetId" style="shape=partialRectangle;connectable=0;top=0;left=1;bottom=1;right=1;align=left;spacingLeft=6;overflow=hidden;fontSize=12;html=1;verticalAlign=middle;strokeWidth=1;" parent="v7Q8paS15kk1C6CEqGlS-169" vertex="1">
          <mxGeometry x="30" width="150" height="30" as="geometry">
            <mxRectangle width="150" height="30" as="alternateBounds" />
          </mxGeometry>
        </mxCell>
        <mxCell id="v7Q8paS15kk1C6CEqGlS-172" value="" style="shape=tableRow;horizontal=0;startSize=0;swimlaneHead=0;swimlaneBody=0;fillColor=none;collapsible=0;dropTarget=0;points=[[0,0.5],[1,0.5]];portConstraint=eastwest;top=0;left=0;right=0;bottom=1;fontSize=12;strokeColor=default;html=1;verticalAlign=middle;strokeWidth=1;" parent="v7Q8paS15kk1C6CEqGlS-165" vertex="1">
          <mxGeometry y="90" width="180" height="30" as="geometry" />
        </mxCell>
        <mxCell id="v7Q8paS15kk1C6CEqGlS-173" value="" style="shape=partialRectangle;connectable=0;top=0;left=1;bottom=1;right=0;editable=1;overflow=hidden;fontSize=12;html=1;verticalAlign=middle;strokeWidth=1;" parent="v7Q8paS15kk1C6CEqGlS-172" vertex="1">
          <mxGeometry width="30" height="30" as="geometry">
            <mxRectangle width="30" height="30" as="alternateBounds" />
          </mxGeometry>
        </mxCell>
        <mxCell id="v7Q8paS15kk1C6CEqGlS-174" value="waveformId" style="shape=partialRectangle;connectable=0;top=0;left=1;bottom=1;right=1;align=left;spacingLeft=6;overflow=hidden;fontSize=12;html=1;verticalAlign=middle;strokeWidth=1;" parent="v7Q8paS15kk1C6CEqGlS-172" vertex="1">
          <mxGeometry x="30" width="150" height="30" as="geometry">
            <mxRectangle width="150" height="30" as="alternateBounds" />
          </mxGeometry>
        </mxCell>
        <mxCell id="v7Q8paS15kk1C6CEqGlS-175" value="" style="edgeStyle=entityRelationEdgeStyle;fontSize=12;html=1;endArrow=ERmandOne;startArrow=ERmandOne;rounded=0;exitX=1;exitY=0.5;exitDx=0;exitDy=0;entryX=0;entryY=0.5;entryDx=0;entryDy=0;verticalAlign=middle;" parent="1" source="v7Q8paS15kk1C6CEqGlS-120" target="v7Q8paS15kk1C6CEqGlS-166" edge="1">
          <mxGeometry width="100" height="100" relative="1" as="geometry">
            <mxPoint x="851" y="903" as="sourcePoint" />
            <mxPoint x="951" y="803" as="targetPoint" />
          </mxGeometry>
        </mxCell>
        <mxCell id="v7Q8paS15kk1C6CEqGlS-187" value="Pattern" style="swimlane;childLayout=stackLayout;horizontal=1;startSize=30;horizontalStack=0;rounded=1;fontSize=12;fontStyle=0;strokeWidth=2;resizeParent=0;resizeLast=1;shadow=0;dashed=0;align=center;html=1;fillColor=#FFFFFF;verticalAlign=middle;" parent="1" vertex="1">
          <mxGeometry x="960" y="670" width="160" height="120" as="geometry" />
        </mxCell>
        <mxCell id="v7Q8paS15kk1C6CEqGlS-188" value="Id&lt;br style=&quot;font-size: 12px;&quot;&gt;+Attribute2&lt;br style=&quot;font-size: 12px;&quot;&gt;+Attribute3" style="align=left;strokeColor=none;fillColor=none;spacingLeft=4;fontSize=12;verticalAlign=middle;resizable=0;rotatable=0;part=1;html=1;" parent="v7Q8paS15kk1C6CEqGlS-187" vertex="1">
          <mxGeometry y="30" width="160" height="90" as="geometry" />
        </mxCell>
        <mxCell id="v7Q8paS15kk1C6CEqGlS-189" value="" style="edgeStyle=entityRelationEdgeStyle;fontSize=12;html=1;endArrow=ERmandOne;startArrow=ERmandOne;rounded=0;entryX=0;entryY=0.25;entryDx=0;entryDy=0;verticalAlign=middle;" parent="1" source="v7Q8paS15kk1C6CEqGlS-128" target="v7Q8paS15kk1C6CEqGlS-188" edge="1">
          <mxGeometry width="100" height="100" relative="1" as="geometry">
            <mxPoint x="838" y="1128" as="sourcePoint" />
            <mxPoint x="938" y="1028" as="targetPoint" />
          </mxGeometry>
        </mxCell>
        <mxCell id="v7Q8paS15kk1C6CEqGlS-190" value="" style="edgeStyle=entityRelationEdgeStyle;fontSize=12;html=1;endArrow=ERmandOne;startArrow=ERmandOne;rounded=0;exitX=1;exitY=0.5;exitDx=0;exitDy=0;" parent="1" source="v7Q8paS15kk1C6CEqGlS-134" target="v7Q8paS15kk1C6CEqGlS-80" edge="1">
          <mxGeometry width="100" height="100" relative="1" as="geometry">
            <mxPoint x="840" y="1020" as="sourcePoint" />
            <mxPoint x="940" y="920" as="targetPoint" />
          </mxGeometry>
        </mxCell>
      </root>
    </mxGraphModel>
  </diagram>
</mxfile>
